<svg xmlns="http://www.w3.org/2000/svg" viewBox="0 0 256 256" role="img" aria-label="Ace Player">
  <defs>
    <linearGradient id="bg" x1="48" y1="24" x2="208" y2="232" gradientUnits="userSpaceOnUse">
      <stop offset="0" stop-color="#7c3aed"/>
      <stop offset="0.55" stop-color="#4f46e5"/>
      <stop offset="1" stop-color="#0891b2"/>
    </linearGradient>
    <filter id="shadow" x="-20%" y="-20%" width="140%" height="140%">
      <feDropShadow dx="0" dy="14" stdDeviation="16" flood-color="#1e1b4b" flood-opacity="0.28"/>
    </filter>
  </defs>
  <rect width="256" height="256" rx="56" fill="url(#bg)"/>
  <g filter="url(#shadow)">
    <path d="M48 145c9-31 39-54 74-54 40 0 74 28 82 66h-31c-7-20-27-34-51-34-22 0-42 13-50 32-7-7-15-10-24-10z" fill="#fff" opacity="0.96"/>
    <path d="M67 160c7-17 24-29 44-29 22 0 40 14 47 33" fill="none" stroke="#dbeafe" stroke-width="14" stroke-linecap="round"/>
    <path d="M64 174h128" stroke="#fff" stroke-width="16" stroke-linecap="round"/>
  </g>
</svg>
